<svg width="46" height="46" viewBox="0 0 46 46" fill="none" xmlns="http://www.w3.org/2000/svg">
<rect width="46" height="46" rx="8" fill="#D1E9FF"/>
<path opacity="0.4" d="M27.19 13H18.81C15.17 13 13 15.17 13 18.81V27.18C13 30.83 15.17 33 18.81 33H27.18C30.82 33 32.99 30.83 32.99 27.19V18.81C33 15.17 30.83 13 27.19 13Z" fill="#021242"/>
<path d="M25.26 23L23.75 22.47V19.08H24.11C24.92 19.08 25.58 19.79 25.58 20.66C25.58 21.07 25.92 21.41 26.33 21.41C26.74 21.41 27.08 21.07 27.08 20.66C27.08 18.96 25.75 17.58 24.11 17.58H23.75V17C23.75 16.59 23.41 16.25 23 16.25C22.59 16.25 22.25 16.59 22.25 17V17.58H21.6C20.12 17.58 18.91 18.83 18.91 20.36C18.91 22.15 19.95 22.72 20.74 23L22.25 23.53V26.91H21.89C21.08 26.91 20.42 26.2 20.42 25.33C20.42 24.92 20.08 24.58 19.67 24.58C19.26 24.58 18.92 24.92 18.92 25.33C18.92 27.03 20.25 28.41 21.89 28.41H22.25V29C22.25 29.41 22.59 29.75 23 29.75C23.41 29.75 23.75 29.41 23.75 29V28.42H24.4C25.88 28.42 27.09 27.17 27.09 25.64C27.08 23.84 26.04 23.27 25.26 23ZM21.24 21.59C20.73 21.41 20.42 21.24 20.42 20.37C20.42 19.66 20.95 19.09 21.61 19.09H22.26V21.95L21.24 21.59ZM24.4 26.92H23.75V24.06L24.76 24.41C25.27 24.59 25.58 24.76 25.58 25.63C25.58 26.34 25.05 26.92 24.4 26.92Z" fill="#021242"/>
</svg>
