<svg width="96" height="96" viewBox="0 0 96 96" fill="none" xmlns="http://www.w3.org/2000/svg">
<path d="M78 32C83.5228 32 88 27.5228 88 22C88 16.4772 83.5228 12 78 12C72.4772 12 68 16.4772 68 22C68 27.5228 72.4772 32 78 32Z" fill="#1570EF"/>
<path d="M78 32C83.5228 32 88 27.5228 88 22C88 16.4772 83.5228 12 78 12C72.4772 12 68 16.4772 68 22C68 27.5228 72.4772 32 78 32Z" fill="#F04438"/>
<path opacity="0.4" d="M82.88 37.2401C85.4 36.4401 88 38.4001 88 41.0801V62.04C88 76.04 80 82.04 68 82.04H28C16 82.04 8 76.04 8 62.04V34.04C8 20.04 16 14.04 28 14.04H58.4399C61.0399 14.04 62.7999 16.4401 62.3199 18.9601C61.8399 21.3201 61.92 23.8401 62.64 26.4401C64.12 31.8001 68.48 36.08 73.84 37.48C77 38.28 80.08 38.1201 82.88 37.2401Z" fill="#1570EF"/>
<path d="M48.0001 51.4801C44.6401 51.4801 41.2401 50.4401 38.6401 48.3201L26.1201 38.3201C24.8401 37.2801 24.6001 35.4001 25.6401 34.1201C26.6801 32.8401 28.5601 32.6001 29.8401 33.6401L42.3601 43.6401C45.4001 46.0801 50.5601 46.0801 53.6001 43.6401L58.32 39.8801C59.6 38.8401 61.5201 39.0401 62.5201 40.3601C63.5601 41.6401 63.3601 43.5601 62.0401 44.5601L57.32 48.3201C54.76 50.4401 51.3601 51.4801 48.0001 51.4801Z" fill="#1570EF"/>
</svg>
