<svg width="25" height="24" viewBox="0 0 25 24" fill="none" xmlns="http://www.w3.org/2000/svg">
<path opacity="0.4" d="M15.6666 3V12C15.6666 13.1 14.7666 14 13.6666 14H2.66663V7.62C3.39663 8.49 4.51665 9.03 5.75665 9C6.76665 8.98 7.67663 8.59 8.35663 7.94C8.66663 7.68 8.92665 7.34999 9.12665 6.98999C9.48665 6.37999 9.68663 5.65997 9.66663 4.90997C9.63663 3.73997 9.11664 2.71 8.30664 2H14.6666C15.2166 2 15.6666 2.45 15.6666 3Z" fill="#087443"/>
<path d="M22.6666 14V17C22.6666 18.66 21.3266 20 19.6666 20H18.6666C18.6666 18.9 17.7666 18 16.6666 18C15.5666 18 14.6666 18.9 14.6666 20H10.6666C10.6666 18.9 9.76663 18 8.66663 18C7.56663 18 6.66663 18.9 6.66663 20H5.66663C4.00663 20 2.66663 18.66 2.66663 17V14H13.6666C14.7666 14 15.6666 13.1 15.6666 12V5H17.5067C18.2267 5 18.8866 5.39001 19.2466 6.01001L20.9566 9H19.6666C19.1166 9 18.6666 9.45 18.6666 10V13C18.6666 13.55 19.1166 14 19.6666 14H22.6666Z" fill="#087443"/>
<path opacity="0.4" d="M8.66663 22C9.7712 22 10.6666 21.1046 10.6666 20C10.6666 18.8954 9.7712 18 8.66663 18C7.56206 18 6.66663 18.8954 6.66663 20C6.66663 21.1046 7.56206 22 8.66663 22Z" fill="#087443"/>
<path opacity="0.4" d="M16.6666 22C17.7712 22 18.6666 21.1046 18.6666 20C18.6666 18.8954 17.7712 18 16.6666 18C15.5621 18 14.6666 18.8954 14.6666 20C14.6666 21.1046 15.5621 22 16.6666 22Z" fill="#087443"/>
<path opacity="0.4" d="M22.6666 12.53V14H19.6666C19.1166 14 18.6666 13.55 18.6666 13V10C18.6666 9.45 19.1166 9 19.6666 9H20.9566L22.4066 11.54C22.5766 11.84 22.6666 12.18 22.6666 12.53Z" fill="#087443"/>
<path d="M8.30663 1.99978C7.58663 1.35978 6.62659 0.979776 5.57659 0.999776C4.63659 1.01978 3.77661 1.36977 3.09661 1.92977C2.19661 2.67977 1.63661 3.8298 1.66661 5.0898C1.68661 5.8398 1.90662 6.53978 2.29662 7.12978C2.40662 7.29978 2.52661 7.46977 2.66661 7.61977C3.39661 8.48977 4.51664 9.02978 5.75664 8.99978C6.76664 8.97978 7.67662 8.58978 8.35662 7.93978C8.66662 7.67978 8.92664 7.34977 9.12664 6.98977C9.48664 6.37977 9.68661 5.65975 9.66661 4.90975C9.63661 3.73975 9.11663 2.70978 8.30663 1.99978ZM7.72661 4.5198L5.63659 6.53975C5.48659 6.67975 5.30663 6.74978 5.11663 6.74978C4.92663 6.74978 4.74661 6.67975 4.59661 6.53975L3.5866 5.57979C3.2866 5.28979 3.27664 4.8198 3.56664 4.5198C3.85664 4.2198 4.32664 4.20978 4.62664 4.49978L5.11663 4.96975L6.68663 3.44979C6.98663 3.15979 7.45663 3.16975 7.74663 3.46975C8.03663 3.75975 8.02661 4.2298 7.72661 4.5198Z" fill="#087443"/>
</svg>
